<svg width="9" height="9" viewBox="0 0 9 9" fill="none" xmlns="http://www.w3.org/2000/svg">
<path d="M3.67546 4.50657L0.171032 1.00204C-0.0570297 0.774085 -0.0570297 0.405513 0.171032 0.177558C0.398987 -0.0503969 0.767559 -0.0503969 0.995515 0.177558L4.50005 3.68209L8.00447 0.177558C8.23253 -0.0503969 8.601 -0.0503969 8.82895 0.177558C9.05702 0.405513 9.05702 0.774085 8.82895 1.00204L5.32453 4.50657L8.82895 8.0111C9.05702 8.23905 9.05702 8.60762 8.82895 8.83558C8.71535 8.94929 8.56598 9.00641 8.41671 9.00641C8.26745 9.00641 8.11818 8.94929 8.00447 8.83558L4.50005 5.33105L0.995515 8.83558C0.881804 8.94929 0.732538 9.00641 0.583273 9.00641C0.434008 9.00641 0.284742 8.94929 0.171032 8.83558C-0.0570297 8.60762 -0.0570297 8.23905 0.171032 8.0111L3.67546 4.50657Z" fill="#fff"/>
</svg>
