<svg width="1308" height="101" viewBox="0 0 1308 101" fill="none" xmlns="http://www.w3.org/2000/svg">
    <path d="M1226 40.4872H0V60.1294H1226V40.4872Z" fill="#F5F9FC"/>
    <path d="M1231.33 100.33H1226.19C1198.52 100.33 1176 77.82 1176 50.1649C1176 22.5099 1198.52 0 1226.19 0H1231.33V100.33Z" fill="#F5F9FC"/>
    <path d="M1296.96 27.0119H1249.35C1243.69 27.0119 1239.05 22.3813 1239.05 16.7216C1239.05 11.062 1243.69 6.4314 1249.35 6.4314H1296.96C1302.62 6.4314 1307.26 11.062 1307.26 16.7216C1307.26 22.3813 1302.62 27.0119 1296.96 27.0119Z" fill="#F5F9FC"/>
    <path d="M1296.96 91.3258H1249.35C1243.69 91.3258 1239.05 86.6952 1239.05 81.0356C1239.05 75.376 1243.69 70.7454 1249.35 70.7454H1296.96C1302.62 70.7454 1307.26 75.376 1307.26 81.0356C1307.26 86.6952 1302.62 91.3258 1296.96 91.3258Z" fill="#F5F9FC"/>
    <path d="M613.091 38L582.283 46.5984L599.991 50L576.218 53.4961L599.991 56.5197L567 62H845L831.658 57.2756L845 52.7402L831.658 50L845 45.0866L816.375 42.063L845 38H613.091Z" fill="url(#paint0_linear)"/>
    <defs>
    <linearGradient id="paint0_linear" x1="706" y1="38" x2="706" y2="62" gradientUnits="userSpaceOnUse">
    <stop stop-color="#3A37B0"/>
    <stop offset="1" stop-color="#3937A7"/>
    </linearGradient>
    </defs>
    </svg>
