<svg width="1341" height="189" viewBox="0 0 1341 189" fill="none" xmlns="http://www.w3.org/2000/svg">
    <g clip-path="url(#clip0)">
    <path d="M1226 65.4872H0V85.1294H1226V65.4872Z" fill="#F5F9FC"/>
    <path d="M1231.33 125.33H1226.19C1198.52 125.33 1176 102.82 1176 75.1649C1176 47.5099 1198.52 25 1226.19 25H1231.33V125.33Z" fill="#F5F9FC"/>
    <path d="M1296.96 52.0119H1249.35C1243.69 52.0119 1239.05 47.3813 1239.05 41.7216C1239.05 36.062 1243.69 31.4314 1249.35 31.4314H1296.96C1302.62 31.4314 1307.26 36.062 1307.26 41.7216C1307.26 47.3813 1302.62 52.0119 1296.96 52.0119Z" fill="#F5F9FC"/>
    <path d="M1296.96 116.326H1249.35C1243.69 116.326 1239.05 111.695 1239.05 106.036C1239.05 100.376 1243.69 95.7454 1249.35 95.7454H1296.96C1302.62 95.7454 1307.26 100.376 1307.26 106.036C1307.26 111.695 1302.62 116.326 1296.96 116.326Z" fill="#F5F9FC"/>
    <path d="M613.091 63L582.283 71.5984L599.991 75L576.218 78.4961L599.991 81.5197L567 87H845L831.658 82.2756L845 77.7402L831.658 75L845 70.0866L816.375 67.063L845 63H613.091Z" fill="url(#paint0_linear)"/>
    <path d="M635.163 29.8929L620 13.052L627.792 4L635.163 29.8929Z" fill="#FFC121"/>
    <path d="M686.55 54.5228L701.924 4L723.615 17.0517L686.55 54.5228Z" fill="#FFC121"/>
    <path d="M669.912 83.9944L695.395 124.834L682.548 135.149L669.912 83.9944Z" fill="#FFC121"/>
    <path d="M795.007 47.5759L751.203 21.4725L764.049 5.47363L795.007 47.5759Z" fill="#FFC121"/>
    <path d="M740.884 137.254L782.793 91.1519L760.469 140.833L740.884 137.254Z" fill="#FFC121"/>
    <path d="M776.054 66.522L762.155 89.8888L754.573 77.0476L776.054 66.522Z" fill="#FFC121"/>
    <path d="M721.298 108.835L699.606 84.4154L729.3 94.941L721.298 108.835Z" fill="#FFC121"/>
    <path d="M815.646 83.9944L809.328 109.677H822.175L815.646 83.9944Z" fill="#FFC121"/>
    <path d="M635.163 89.8888L656.434 118.308L635.163 119.992V89.8888Z" fill="#FFC121"/>
    <path d="M648.641 50.523L663.383 54.5228L648.641 58.5225L644.64 73.2583L640.638 58.5225L625.896 54.5228L640.638 50.523L644.64 35.7872L648.641 50.523Z" fill="#FFC121"/>
    <path d="M822.385 129.675L832.915 132.412L822.385 135.359L819.648 145.674L816.699 135.359L806.169 132.412L816.699 129.675L819.648 119.15L822.385 129.675Z" fill="#FFC121"/>
    <path d="M745.096 37.6818L755.626 40.629L745.096 43.3656L742.148 53.8912L739.41 43.3656L728.88 40.629L739.41 37.6818L742.148 27.1562L745.096 37.6818Z" fill="#FFC121"/>
    </g>
    <defs>
    <linearGradient id="paint0_linear" x1="706" y1="63" x2="706" y2="87" gradientUnits="userSpaceOnUse">
    <stop stop-color="#3A37B0"/>
    <stop offset="1" stop-color="#3937A7"/>
    </linearGradient>
    <clipPath id="clip0">
    <rect width="1341" height="189" fill="white"/>
    </clipPath>
    </defs>
    </svg>
