<svg width="324" height="211" viewBox="0 0 324 211" fill="none" xmlns="http://www.w3.org/2000/svg">
    <path d="M208.663 79.8194C213.702 86.9747 218.006 94.6912 224.993 100.455C236.937 110.3 255.075 112.825 265.072 124.727C275.791 137.495 271.067 155.582 259.59 166.279C251.949 173.4 241.673 177.948 230.989 180.684C207.858 186.6 53.5509 180.029 45.8991 176.65C35.6461 172.114 31.0387 163.427 31.7852 153.606C32.9983 137.53 46.6689 124.423 61.6809 115.526C76.6929 106.628 93.7811 100.467 107.79 90.377C115.803 84.6013 122.627 77.6564 130.279 71.5183C136.648 66.3973 143.751 61.8492 151.846 59.1017C172.737 51.9931 197.5 63.9771 208.663 79.8194Z" fill="#FFF174"/>
    <path d="M261.573 210.076C266.402 205.365 266.658 196.76 262.121 191.767C257.583 186.775 249.022 186.225 243.889 190.598C245.231 185.886 244.099 180.239 240.239 177.223C236.378 174.206 229.811 174.955 227.524 179.292C227.314 172.64 225.635 165.835 221.552 160.586C217.47 155.324 210.728 151.887 204.161 152.916C197.769 153.921 192.473 159.031 190.222 165.099C187.971 171.178 188.496 178.03 190.583 184.156C186.664 181.584 181.205 182.098 177.344 184.776C173.495 187.453 171.162 191.954 170.358 196.584C169.553 201.214 170.148 205.984 171.197 210.556" stroke="#111111" stroke-width="0.75" stroke-miterlimit="10" stroke-linecap="round" stroke-linejoin="round"/>
    <path d="M247.47 210.509H323.557" stroke="#111111" stroke-width="0.75" stroke-miterlimit="10" stroke-linecap="round" stroke-linejoin="round"/>
    <path d="M237.696 210.509H241.638" stroke="#111111" stroke-width="0.75" stroke-miterlimit="10" stroke-linecap="round" stroke-linejoin="round"/>
    <path d="M78.9092 210.509H231.187" stroke="#111111" stroke-width="0.75" stroke-miterlimit="10" stroke-linecap="round" stroke-linejoin="round"/>
    <path d="M0.443359 210.509H68.703" stroke="#111111" stroke-width="0.75" stroke-miterlimit="10" stroke-linecap="round" stroke-linejoin="round"/>
    <path d="M42.3416 209.761C38.9939 206.487 38.8073 200.512 41.9566 197.04C45.106 193.568 51.0665 193.193 54.6241 196.222C53.691 192.948 54.4841 189.031 57.1669 186.927C59.8497 184.834 64.4105 185.348 66.0085 188.365C66.1485 183.735 67.3266 179.011 70.161 175.364C72.9954 171.716 77.6845 169.319 82.2452 170.032C86.6777 170.722 90.3636 174.276 91.9266 178.497C93.4896 182.718 93.1281 187.476 91.67 191.744C94.3995 189.955 98.1904 190.317 100.873 192.176C103.544 194.035 105.166 197.169 105.726 200.384C106.285 203.599 105.877 206.908 105.142 210.1" stroke="#111111" stroke-width="0.75" stroke-miterlimit="10" stroke-linecap="round" stroke-linejoin="round"/>
    <path d="M199.694 141.797H88.1826V210.509H199.694V141.797Z" fill="#2EA0DD"/>
    <path d="M199.717 141.797H190.444V210.509H199.717V141.797Z" fill="#0A7DC4"/>
    <path d="M199.694 141.797H88.1826V210.509H199.694V141.797Z" stroke="#111111" stroke-width="0.75" stroke-miterlimit="10" stroke-linecap="round" stroke-linejoin="round"/>
    <path d="M203.263 167.647C203.823 165.741 204.429 163.765 205.759 162.292C207.089 160.819 209.363 160.001 211.101 160.959C213.014 162.012 213.411 164.759 212.536 166.77C211.661 168.781 209.876 170.219 208.162 171.576C206.855 172.604 205.549 173.645 204.243 174.674C203.251 175.457 201.711 177.211 200.51 177.445C200.288 176.124 201.408 173.902 201.805 172.569C202.271 171.014 202.54 169.097 203.263 167.647Z" stroke="#111111" stroke-width="0.75" stroke-miterlimit="10" stroke-linecap="round" stroke-linejoin="round"/>
    <path d="M195.459 167.647C194.899 165.741 194.293 163.765 192.963 162.292C191.633 160.819 189.359 160.001 187.621 160.959C185.708 162.012 185.311 164.759 186.186 166.77C187.061 168.781 188.846 170.219 190.56 171.576C191.867 172.604 193.173 173.645 194.479 174.674C195.471 175.457 197.011 177.211 198.212 177.445C198.434 176.124 197.314 173.902 196.917 172.569C196.451 171.014 196.182 169.097 195.459 167.647Z" stroke="#111111" stroke-width="0.75" stroke-miterlimit="10" stroke-linecap="round" stroke-linejoin="round"/>
    <path d="M142.282 42.476C142.655 40.2078 142.69 37.9046 142.958 35.6247C143.227 33.3448 143.728 31.0299 144.941 29.089C146.154 27.1365 148.184 25.5932 150.458 25.4178C152.745 25.2425 155.183 26.7273 155.672 28.9721L156.139 36.373L144.066 47.597L141.08 45.2236L142.282 42.476Z" fill="#2EA0DD" stroke="#111111" stroke-width="0.75" stroke-miterlimit="10" stroke-linecap="round" stroke-linejoin="round"/>
    <path d="M146.376 43.5749C149.444 38.3136 153.013 33.3447 157.002 28.7615C159.452 25.9438 162.426 23.1028 166.147 22.8105C170.766 22.4597 174.919 26.5752 175.677 31.1583C176.423 35.7415 174.382 40.4182 171.338 43.914L169.331 50.473L141.454 52.7178L146.376 43.5749Z" fill="white" stroke="#111111" stroke-width="0.75" stroke-miterlimit="10" stroke-linecap="round" stroke-linejoin="round"/>
    <path d="M114.287 40.5702C113.541 38.3956 114.859 35.8585 116.9 34.8179C118.941 33.7774 121.473 34.0463 123.525 35.0868C125.567 36.1157 127.2 37.8227 128.611 39.6466C130.011 41.4588 131.247 43.4113 132.74 45.1534L127.526 53.9689L113.448 43.6101L114.287 40.5702Z" fill="white" stroke="#111111" stroke-width="0.75" stroke-miterlimit="10" stroke-linecap="round" stroke-linejoin="round"/>
    <path d="M108.63 61.4868C104.209 60.0838 100.045 57.1492 98.319 52.8466C96.5926 48.5441 98.0157 42.8619 102.145 40.7574C105.469 39.0621 109.482 39.9624 113.039 41.0848C118.837 42.9321 124.447 45.3172 129.789 48.2284L141.442 52.718L108.63 61.4868Z" fill="#2EA0DD" stroke="#111111" stroke-width="0.75" stroke-miterlimit="10" stroke-linecap="round" stroke-linejoin="round"/>
    <path d="M199.261 36.767L79.8787 70.2269L83.1801 82.0615L202.563 48.6016L199.261 36.767Z" fill="#2EA0DD" stroke="#111111" stroke-width="0.75" stroke-miterlimit="10" stroke-linecap="round" stroke-linejoin="round"/>
    <path d="M132.425 55.2783C131.912 54.0975 130.851 51.9345 130.652 50.6601C130.454 49.3857 130.617 48.0061 131.376 46.9539C132.367 45.5626 134.163 45.0247 135.82 44.6155C138.071 44.066 140.334 43.575 142.608 43.1541C143.297 43.0255 143.996 42.9085 144.673 43.0722C146.049 43.3996 146.901 44.7909 147.309 46.1354C147.717 47.4917 148.196 49.7482 148.382 50.9641L132.425 55.2783Z" fill="white" stroke="#111111" stroke-width="0.75" stroke-miterlimit="10" stroke-linecap="round" stroke-linejoin="round"/>
    <path d="M148.405 50.9525L143.658 52.2386C143.448 50.9759 143.028 49.035 142.643 47.8425C142.258 46.4629 141.383 45.0832 140.019 44.7559C139.33 44.6039 138.642 44.7208 137.954 44.8494C136.041 45.2119 134.163 45.5977 132.25 46.042C133.265 45.2937 134.583 44.9079 135.831 44.6039C138.071 44.0661 140.345 43.5867 142.608 43.1658C143.296 43.0138 144.008 42.8969 144.673 43.0723C146.049 43.3996 146.912 44.7793 147.332 46.1238C147.717 47.48 148.195 49.7599 148.405 50.9525Z" fill="#2EA0DD"/>
    <path d="M132.425 55.2783C131.912 54.0975 130.851 51.9345 130.652 50.6601C130.454 49.3857 130.617 48.0061 131.376 46.9539C132.367 45.5626 134.163 45.0247 135.82 44.6155C138.071 44.066 140.334 43.575 142.608 43.1541C143.297 43.0255 143.996 42.9085 144.673 43.0722C146.049 43.3996 146.901 44.7909 147.309 46.1354C147.717 47.4917 148.196 49.7482 148.382 50.9641L132.425 55.2783Z" stroke="#111111" stroke-width="0.75" stroke-miterlimit="10" stroke-linecap="round" stroke-linejoin="round"/>
    <path d="M206.622 66.3385C206.622 66.3385 213.656 67.005 213.189 59.7561L218.275 62.036C218.275 62.036 218.076 70.6294 209.363 71.7752L206.622 66.3385Z" fill="#2EA0DD" stroke="#111111" stroke-width="0.75" stroke-miterlimit="10" stroke-linecap="round" stroke-linejoin="round"/>
    <path d="M70.6044 101.356C70.6044 101.356 63.5475 101.776 65.1338 108.873L59.7566 107.4C59.7566 107.4 58.6368 98.8769 67.0701 96.4099L70.6044 101.356Z" fill="#2EA0DD" stroke="#111111" stroke-width="0.75" stroke-miterlimit="10" stroke-linecap="round" stroke-linejoin="round"/>
    <path d="M228.143 146.029C228.143 146.029 236.075 142.557 240.215 150.916L238.582 154.319C238.582 154.319 234.64 148.555 229.601 151.501L228.143 146.029Z" fill="#2EA0DD" stroke="#111111" stroke-width="0.75" stroke-miterlimit="10" stroke-linecap="round" stroke-linejoin="round"/>
    <path d="M144.253 75.2243C144.253 75.2243 150.668 73.5057 152.476 78.1122L155.684 74.5813C155.684 74.5813 153.013 68.4782 145.326 71.2609L144.253 75.2243Z" fill="#2EA0DD" stroke="#111111" stroke-width="0.75" stroke-miterlimit="10" stroke-linecap="round" stroke-linejoin="round"/>
    <path d="M88.9873 152.787H102.238" stroke="#111111" stroke-width="0.75" stroke-miterlimit="10" stroke-linecap="round" stroke-linejoin="round"/>
    <path d="M108.642 152.787H115.15" stroke="#111111" stroke-width="0.75" stroke-miterlimit="10" stroke-linecap="round" stroke-linejoin="round"/>
    <path d="M95.3909 131.602L70.7092 84.5311" stroke="#111111" stroke-width="0.75" stroke-miterlimit="10" stroke-linecap="round" stroke-linejoin="round"/>
    <path d="M78.3027 125.242L72.0156 117.35" stroke="#111111" stroke-width="0.75" stroke-miterlimit="10" stroke-linecap="round" stroke-linejoin="round"/>
    <path d="M78.5943 141.341L55.2773 123.009" stroke="#111111" stroke-width="0.75" stroke-miterlimit="10" stroke-linecap="round" stroke-linejoin="round"/>
    <path d="M107.044 126.224L110.006 134.233" stroke="#111111" stroke-width="0.75" stroke-miterlimit="10" stroke-linecap="round" stroke-linejoin="round"/>
    <path d="M213.014 95.5797L225.985 78.0071" stroke="#111111" stroke-width="0.75" stroke-miterlimit="10" stroke-linecap="round" stroke-linejoin="round"/>
    <path d="M205.537 125.078L220.386 110.159" stroke="#111111" stroke-width="0.75" stroke-miterlimit="10" stroke-linecap="round" stroke-linejoin="round"/>
    <path d="M210.098 139.505L245.184 120.612" stroke="#111111" stroke-width="0.75" stroke-miterlimit="10" stroke-linecap="round" stroke-linejoin="round"/>
    <path d="M171.711 65.7542L168.97 85.9106" stroke="#111111" stroke-width="0.75" stroke-miterlimit="10" stroke-linecap="round" stroke-linejoin="round"/>
    <path d="M112.526 97.8127L108.187 84.1919" stroke="#111111" stroke-width="0.75" stroke-miterlimit="10" stroke-linecap="round" stroke-linejoin="round"/>
    <path d="M222.1 177.878H175.828V210.17H222.1V177.878Z" fill="white" stroke="#111111" stroke-width="0.75" stroke-miterlimit="10" stroke-linecap="round" stroke-linejoin="round"/>
    <path d="M176.213 189.896H220.957" stroke="#111111" stroke-width="0.75" stroke-miterlimit="10" stroke-linecap="round" stroke-linejoin="round"/>
    <path d="M154.004 141.797H133.895V210.556H154.004V141.797Z" fill="white" stroke="#111111" stroke-width="0.75" stroke-miterlimit="10" stroke-linecap="round" stroke-linejoin="round"/>
    <path d="M119.758 152.787H185.649" stroke="#111111" stroke-width="0.75" stroke-miterlimit="10" stroke-linecap="round" stroke-linejoin="round"/>
    <path d="M261.293 67.8117C263.754 67.8117 265.748 65.8121 265.748 63.3455C265.748 60.8789 263.754 58.8793 261.293 58.8793C258.832 58.8793 256.837 60.8789 256.837 63.3455C256.837 65.8121 258.832 67.8117 261.293 67.8117Z" stroke="#2EA0DD" stroke-miterlimit="10"/>
    <path d="M31.2839 173.984C31.2839 176.451 29.2893 178.45 26.8281 178.45C24.3669 178.45 22.3723 176.451 22.3723 173.984C22.3723 171.517 24.3669 169.518 26.8281 169.518C29.2893 169.506 31.2839 171.517 31.2839 173.984Z" stroke="#2EA0DD" stroke-miterlimit="10"/>
    <path d="M283.455 126.679C283.455 129.146 281.46 131.146 278.999 131.146C276.538 131.146 274.543 129.146 274.543 126.679C274.543 124.212 276.538 122.213 278.999 122.213C281.46 122.213 283.455 124.212 283.455 126.679Z" stroke="#2EA0DD" stroke-miterlimit="10"/>
    <path d="M192.275 9.51705C194.736 9.51705 196.731 7.51745 196.731 5.05082C196.731 2.58419 194.736 0.584595 192.275 0.584595C189.814 0.584595 187.819 2.58419 187.819 5.05082C187.819 7.51745 189.814 9.51705 192.275 9.51705Z" stroke="#2EA0DD" stroke-miterlimit="10"/>
    <path d="M50.3431 93.697C50.3431 96.0237 48.4652 97.9061 46.144 97.9061C43.8228 97.9061 41.9448 96.0237 41.9448 93.697C41.9448 91.3704 43.8228 89.488 46.144 89.488C48.4652 89.488 50.3431 91.3704 50.3431 93.697Z" stroke="#2EA0DD" stroke-miterlimit="10"/>
    <path d="M260.371 93.5922H277.518" stroke="#111111" stroke-width="0.75" stroke-miterlimit="10" stroke-linecap="round" stroke-linejoin="round"/>
    <path d="M285.974 100.467H306.993" stroke="#111111" stroke-width="0.75" stroke-miterlimit="10" stroke-linecap="round" stroke-linejoin="round"/>
    <path d="M275.43 100.467H280.597" stroke="#111111" stroke-width="0.75" stroke-miterlimit="10" stroke-linecap="round" stroke-linejoin="round"/>
    <path d="M77.7894 36.4314H60.6545" stroke="#111111" stroke-width="0.75" stroke-miterlimit="10" stroke-linecap="round" stroke-linejoin="round"/>
    <path d="M52.198 43.3063H31.1672" stroke="#111111" stroke-width="0.75" stroke-miterlimit="10" stroke-linecap="round" stroke-linejoin="round"/>
    <path d="M62.7427 43.3063H57.5637" stroke="#111111" stroke-width="0.75" stroke-miterlimit="10" stroke-linecap="round" stroke-linejoin="round"/>
    <path d="M93.9797 184.6C94.1197 185.991 94.458 187.687 95.3444 187.885C95.8693 188.002 96.3826 187.476 96.6742 186.786C96.9658 186.097 97.0708 185.255 97.1524 184.436C97.8289 178.111 97.7006 171.575 96.8025 165.309C96.6042 163.906 96.3359 162.444 95.6944 161.415C94.9595 160.223 93.5948 159.767 93.1982 161.509C92.7316 163.52 93.1049 166.969 93.1282 169.109C93.2099 174.288 93.4898 179.467 93.9797 184.6Z" fill="#71CCF4"/>
    <path d="M98.7386 70.9568C97.4089 71.3777 95.8342 72.0792 95.8225 72.9911C95.8225 73.529 96.4407 73.9265 97.1756 74.0551C97.9104 74.1954 98.7503 74.1135 99.5668 74.0317C105.877 73.3536 112.234 71.8454 118.148 69.6356C119.478 69.1446 120.842 68.5717 121.706 67.7299C122.709 66.7595 122.872 65.3331 121.087 65.3097C119.023 65.2863 115.745 66.3736 113.669 66.853C108.63 68.0105 103.638 69.3784 98.7386 70.9568Z" fill="#71CCF4"/>
    <path d="M127.491 64.4913L186.454 48.3451" stroke="#111111" stroke-width="0.75" stroke-miterlimit="10" stroke-linecap="round" stroke-linejoin="round"/>
    <path d="M204.103 177.527H195.016V209.819H204.103V177.527Z" fill="#FFF174" stroke="#111111" stroke-width="0.75" stroke-miterlimit="10" stroke-linecap="round" stroke-linejoin="round"/>
    <path d="M204.103 177.527H200.767V209.819H204.103V177.527Z" fill="#FFF174"/>
    <path d="M204.103 177.527H195.016V209.819H204.103V177.527Z" stroke="#FFF174" stroke-width="0.75" stroke-miterlimit="10" stroke-linecap="round" stroke-linejoin="round"/>
    <path d="M179.363 193.907V199.858" stroke="#111111" stroke-width="0.75" stroke-miterlimit="10" stroke-linecap="round" stroke-linejoin="round"/>
    <g clip-path="url(#clip0)">
    <path d="M147.554 140.3C163.981 140.3 177.298 126.952 177.298 110.487C177.298 94.0208 163.981 80.6727 147.554 80.6727C131.127 80.6727 117.81 94.0208 117.81 110.487C117.81 126.952 131.127 140.3 147.554 140.3Z" fill="#FFE710"/>
    <path d="M134.601 136.793V128.319H125.975V84.1803H166.8V136.793H134.601Z" fill="white"/>
    <path d="M134.601 137.37L125.975 128.707H134.601V137.37Z" fill="#E6E9EE"/>
    <path d="M162.897 104.808H129.86V106.828H162.897V104.808Z" fill="#E6E9EE"/>
    <path d="M162.898 99.5715H143.147V101.592H162.898V99.5715Z" fill="#E6E9EE"/>
    <path d="M162.898 94.3329H143.147V96.3531H162.898V94.3329Z" fill="#E6E9EE"/>
    <path d="M162.898 89.1135H143.147V91.1337H162.898V89.1135Z" fill="#E6E9EE"/>
    <path d="M162.897 110.027H129.86V112.047H162.897V110.027Z" fill="#E6E9EE"/>
    <path d="M162.897 115.263H129.86V117.283H162.897V115.263Z" fill="#E6E9EE"/>
    <path d="M145.435 120.485H129.86V122.505H145.435V120.485Z" fill="#E6E9EE"/>
    <path d="M135.612 95.304C136.4 94.9209 137.037 93.9546 137.306 92.8551C137.524 92.8052 137.691 92.5719 137.691 92.2887C137.691 92.0721 137.591 91.8722 137.44 91.7723C137.44 91.7556 137.44 91.739 137.44 91.739C137.44 89.9065 136.283 88.8569 134.874 88.8569C133.449 88.8569 132.308 89.9065 132.308 91.739C132.308 91.7556 132.308 91.7723 132.308 91.7723C132.157 91.8722 132.057 92.0555 132.057 92.2887C132.057 92.5719 132.224 92.8218 132.442 92.8551C132.694 93.9213 133.298 94.8542 134.052 95.2707C131.47 95.6039 129.474 97.7862 129.474 100.435C129.474 100.452 129.474 100.485 129.474 100.502C130.9 101.268 132.727 101.718 134.723 101.718C136.719 101.718 138.547 101.268 139.972 100.502C139.972 100.485 139.972 100.452 139.972 100.435C139.955 97.8529 138.077 95.7205 135.612 95.304Z" fill="#F8971C"/>
    </g>
    <defs>
    <clipPath id="clip0">
    <rect width="59.4881" height="59.6276" fill="white" transform="translate(117.81 80.6727)"/>
    </clipPath>
    </defs>
    </svg>
