<svg width="107" height="161" viewBox="0 0 107 161" fill="none" xmlns="http://www.w3.org/2000/svg">
<path d="M106.632 79.3139C106.632 92.0788 105.274 103.214 102.83 113.263C100.385 123.312 96.8546 131.732 92.2374 138.793C87.6203 145.855 81.9168 151.015 75.127 154.817C68.3371 158.348 60.7324 160.249 52.313 160.249C43.8935 160.249 36.2889 158.62 30.0422 155.089C23.5239 151.558 18.092 146.669 13.7465 140.151C9.40101 133.633 6.14186 125.485 3.9691 115.979C1.79634 106.473 0.709961 95.338 0.709961 83.1162C0.709961 69.808 1.79634 57.8579 3.9691 47.5373C6.14186 37.2166 9.6726 28.5256 14.0181 21.4641C18.6352 14.4027 24.3387 8.97078 31.1286 5.44005C37.9185 1.90931 46.0663 0.00814839 55.3005 0.00814839C89.5215 -0.535041 106.632 26.0813 106.632 79.3139ZM83.0032 80.9434C83.0032 60.0306 80.5589 44.2781 75.6701 33.6859C70.7814 23.3653 63.72 17.9334 54.4858 17.9334C44.4367 17.9334 36.8321 23.3653 31.9434 33.9575C26.7831 44.5497 24.3387 60.5738 24.3387 82.0298C24.3387 101.856 26.7831 116.794 31.9434 126.571C36.8321 136.349 44.1651 141.237 53.9426 141.237C63.4484 141.237 70.7814 136.349 75.6701 126.3C80.5589 116.251 83.0032 101.313 83.0032 80.9434Z" fill="#F5F9FC"/>
</svg>
