<svg width="114" height="159" viewBox="0 0 114 159" fill="none" xmlns="http://www.w3.org/2000/svg">
<path d="M112.983 117.609H90.4411V158.076H67.3555V117.609H1.35797L0 110.276C0.814785 105.115 2.71595 99.4119 5.70349 92.6221C8.69104 86.1038 12.2218 79.0423 16.2957 71.9809C20.3696 64.9194 24.9867 57.5863 30.147 50.2533C35.3073 42.9202 40.196 36.1303 45.3563 29.8837C50.5167 23.3654 55.1338 17.6619 59.7509 12.7732C64.368 7.61287 68.4419 3.81054 71.9726 0.822998H90.7127V99.1404H113.255V117.609H112.983ZM67.6271 99.4119V38.8463C67.6271 37.7599 67.6271 36.4019 67.6271 35.044C67.6271 33.686 67.6271 32.0564 67.8987 30.6984C67.6271 30.97 67.0839 31.5132 67.0839 32.0564C66.8123 32.5996 66.5407 32.8712 66.2692 33.4144C65.1828 34.5008 63.2816 36.4019 61.3805 38.8463C59.2077 41.2906 57.0349 44.2782 54.319 47.5373C51.603 51.0681 48.8871 54.5988 46.1711 58.6727C43.1836 62.7466 40.4676 67.0922 37.7517 71.7093C35.0357 76.3264 32.5914 80.9435 30.147 85.5606C27.7027 90.1777 25.5299 94.7948 23.9004 99.4119H67.6271Z" fill="#F5F9FC"/>
</svg>
